<svg width="43" height="7" viewBox="0 0 43 7" fill="none" xmlns="http://www.w3.org/2000/svg">
<path d="M0 4L8.74216e-08 3.00001L37 3L37 3.99999L0 4Z" fill="#476C8A"/>
<path d="M37.6719 3.24023C37.6719 4.3448 38.5673 5.24023 39.6719 5.24023C40.7764 5.24023 41.6719 4.3448 41.6719 3.24023C41.6719 2.13566 40.7764 1.2402 39.6719 1.2402L39.6719 0.240204C41.3287 0.240204 42.6719 1.5834 42.6719 3.24023C42.6719 4.89709 41.3287 6.24023 39.6719 6.24023C38.015 6.24023 36.6719 4.89709 36.6719 3.24023C36.6719 1.5834 38.015 0.240204 39.6719 0.240204L39.6719 1.2402C38.5673 1.2402 37.6719 2.13566 37.6719 3.24023Z" fill="#476C8A"/>
</svg>
