<svg width="101" height="33" viewBox="0 0 101 33" fill="none" xmlns="http://www.w3.org/2000/svg">
<mask id="mask0_218_8017" style="mask-type:luminance" maskUnits="userSpaceOnUse" x="0" y="0" width="101" height="33">
<path d="M101 0H0V33H101V0Z" fill="white"/>
</mask>
<g mask="url(#mask0_218_8017)">
<path d="M9 22.4316C9 21.3271 8.10457 20.4316 7 20.4316C5.89543 20.4316 5 21.3271 5 22.4316C5 23.5362 5.89543 24.4316 7 24.4316V25.4316C5.34315 25.4316 4 24.0885 4 22.4316C4 20.7748 5.34315 19.4316 7 19.4316C8.65685 19.4316 10 20.7748 10 22.4316C10 24.0885 8.65685 25.4316 7 25.4316V24.4316C8.10457 24.4316 9 23.5362 9 22.4316Z" fill="#476C8A"/>
<path d="M47.2867 21.931C51.1323 21.931 54.8205 20.4035 57.5398 17.6842L62.7526 12.4714C65.6593 9.56467 69.602 7.93193 73.7128 7.93182H98.6355V8.93171H73.7128C69.8673 8.93182 66.1789 10.4593 63.4597 13.1785L58.2469 18.3913C55.34 21.2981 51.3976 22.9323 47.2867 22.9323L9.99994 22.9316V21.9317L47.2867 21.931Z" fill="#476C8A"/>
</g>
</svg>
