<svg width="24" height="24" viewBox="0 0 24 24" fill="none" xmlns="http://www.w3.org/2000/svg">
<path d="M19.7749 12.0001C20.4059 11.0101 20.926 10.0231 21.302 9.06907C22.337 6.43907 22.215 4.29809 20.957 3.04209C19.699 1.78409 17.5599 1.6621 14.9299 2.6981C13.9759 3.0731 12.989 3.5941 11.999 4.2241C11.009 3.5931 10.0221 3.0731 9.06813 2.6981C6.43813 1.6621 4.29703 1.78409 3.04103 3.04209C1.78303 4.29909 1.66106 6.44005 2.69606 9.07005C3.07206 10.024 3.59191 11.0111 4.22291 12.0011C3.59191 12.9911 3.07206 13.9781 2.69606 14.9321C1.66106 17.5621 1.78303 19.7031 3.04103 20.9601C3.73303 21.6521 4.69297 22.0011 5.85597 22.0011C6.80397 22.0011 7.88613 21.7701 9.06813 21.3041C10.0221 20.9291 11.009 20.4081 11.999 19.7781C12.989 20.4091 13.9759 20.9291 14.9299 21.3041C16.1119 21.7691 17.1941 22.0011 18.1421 22.0011C19.3041 22.0011 20.265 21.6531 20.957 20.9601C22.215 19.7031 22.337 17.5621 21.302 14.9321C20.927 13.9771 20.4059 12.9901 19.7749 12.0001ZM15.6641 4.55906C16.6051 4.18806 17.453 4.00206 18.138 4.00206C18.755 4.00206 19.241 4.15313 19.544 4.45713C20.185 5.09713 20.1469 6.54714 19.4409 8.33714C19.1999 8.95014 18.8841 9.58305 18.5171 10.2211C17.8491 9.36305 17.106 8.51706 16.294 7.70506C15.482 6.89306 14.6361 6.15113 13.7791 5.48313C14.4181 5.11513 15.0511 4.80006 15.6641 4.55906ZM9.11891 9.11912C10.0499 8.18912 11.022 7.3611 12 6.6461C12.978 7.3601 13.9501 8.18812 14.8811 9.11912C15.8121 10.0501 16.64 11.0231 17.355 12.0001C16.64 12.9781 15.8121 13.9511 14.8811 14.8811C13.9501 15.8111 12.978 16.6391 12 17.3541C11.022 16.6401 10.0499 15.8121 9.11891 14.8811C8.18791 13.9501 7.36003 12.9771 6.64503 12.0001C7.36003 11.0221 8.18791 10.0491 9.11891 9.11912ZM4.55909 8.33616C3.85409 6.54616 3.81607 5.09616 4.45607 4.45616C4.76007 4.15316 5.24507 4.00108 5.86207 4.00108C6.54707 4.00108 7.39395 4.18809 8.33595 4.55809C8.94895 4.80009 9.58198 5.11516 10.22 5.48216C9.36198 6.14916 8.51709 6.89208 7.70509 7.70408C6.89309 8.51608 6.14995 9.36207 5.48195 10.2201C5.11495 9.58207 4.80009 8.95016 4.55909 8.33616ZM8.33595 19.4411C6.54895 20.1461 5.09807 20.185 4.45607 19.544C3.81507 18.903 3.85309 17.4531 4.55909 15.6631C4.80009 15.0501 5.11592 14.4172 5.48292 13.7792C6.15092 14.6372 6.89407 15.4831 7.70607 16.2951C8.51807 17.1071 9.36396 17.8491 10.221 18.5171C9.58196 18.8851 8.94895 19.2001 8.33595 19.4411ZM19.544 19.544C18.902 20.184 17.4531 20.1461 15.6641 19.4411C15.0511 19.1991 14.418 18.8841 13.78 18.5171C14.637 17.8501 15.4829 17.1071 16.2949 16.2951C17.1069 15.4831 17.8501 14.6372 18.5181 13.7792C18.8851 14.4182 19.1999 15.0501 19.4419 15.6631C20.1459 17.4531 20.185 18.904 19.544 19.544ZM10.7649 12.0001C10.7649 11.3101 11.32 10.7501 12.01 10.7501H12.02C12.71 10.7501 13.27 11.3101 13.27 12.0001C13.27 12.6901 12.71 13.2501 12.02 13.2501C11.33 13.2501 10.7649 12.6901 10.7649 12.0001Z" fill="#EA3C19"/>
</svg>
