<svg width="24" height="24" viewBox="0 0 24 24" fill="none" xmlns="http://www.w3.org/2000/svg">
<path d="M9.47998 11.15C9.72998 11.26 9.99 11.3301 10.25 11.3901V20.9101C10.09 20.8701 9.93003 20.81 9.78003 20.74L3.78003 18.0701C2.70003 17.5901 2 16.52 2 15.33V8.67006C2 8.40006 2.03999 8.13005 2.10999 7.88005L9.47998 11.15ZM19.13 6.56005C18.87 6.30005 18.57 6.08004 18.22 5.93004L12.22 3.26006C11.44 2.91006 10.56 2.91006 9.78003 3.26006L3.78003 5.93004C3.43003 6.08004 3.13 6.30005 2.87 6.56005L10.08 9.77004C10.66 10.03 11.33 10.03 11.92 9.77004L19.13 6.56005ZM12.559 16.176C12.927 13.595 15.1889 11.595 17.7939 11.504C18.4299 11.482 19.036 11.5631 19.604 11.7391C19.801 11.8001 20 11.666 20 11.46V8.67006C20 8.40006 19.96 8.13005 19.89 7.88005L12.52 11.15C12.27 11.25 12.01 11.3301 11.75 11.3901V20.9101C11.769 20.9221 11.769 20.922 11.788 20.934L13.192 20.3031C13.359 20.2281 13.414 20.025 13.317 19.869C12.663 18.817 12.363 17.548 12.559 16.176ZM22 17C22 19.21 20.21 21 18 21C15.79 21 14 19.21 14 17C14 14.79 15.79 13 18 13C20.21 13 22 14.79 22 17ZM19.6 15.81C19.41 15.62 19.09 15.62 18.9 15.81L17.58 17.12L17.1 16.65C16.91 16.45 16.59 16.45 16.4 16.65C16.2 16.84 16.2 17.1601 16.4 17.3501L17.23 18.1901C17.32 18.2801 17.45 18.33 17.58 18.33C17.72 18.33 17.8399 18.2801 17.9399 18.1901L19.6 16.52C19.8 16.32 19.8 16.01 19.6 15.81Z" fill="#EA3C19"/>
</svg>
