<svg width="25" height="24" viewBox="0 0 25 24" fill="none" xmlns="http://www.w3.org/2000/svg">
<path d="M12.5 2C6.98 2 2.5 6.48 2.5 12C2.5 17.52 6.98 22 12.5 22C18.02 22 22.5 17.52 22.5 12C22.5 6.48 18.02 2 12.5 2ZM16.53 10.2L11.86 14.86C11.72 15.01 11.53 15.08 11.33 15.08C11.14 15.08 10.95 15.01 10.8 14.86L8.47 12.53C8.18 12.24 8.18 11.76 8.47 11.47C8.76 11.18 9.24 11.18 9.53 11.47L11.33 13.27L15.47 9.14001C15.76 8.84001 16.24 8.84001 16.53 9.14001C16.82 9.43001 16.82 9.90001 16.53 10.2Z" fill="#01A64F"/>
</svg>
