<svg width="24" height="24" viewBox="0 0 24 24" fill="none" xmlns="http://www.w3.org/2000/svg">
<path d="M21 11.3399V18.9998C21 20.3298 20.33 20.9998 19 20.9998H17.8C17.634 20.9998 17.5 20.8657 17.5 20.6997V9.71975C17.5 9.51975 17.68 9.37971 17.87 9.42971L19.83 9.87966C20.52 10.0297 21 10.6399 21 11.3399ZM16 6.80984V20.6997C16 20.8657 15.866 20.9998 15.7 20.9998C15.7 20.9998 11.864 20.9998 11.8 20.9998C11.63 20.9998 11.5 20.8497 11.5 20.7097C11.5 20.5797 11.5 16.9998 11.5 16.9998C11.5 15.8998 10.6 14.9998 9.5 14.9998C8.4 14.9998 7.5 15.8998 7.5 16.9998C7.5 16.9998 7.5 20.5397 7.5 20.6997C7.5 20.8597 7.34998 20.9998 7.22998 20.9998C7.09998 20.9998 5 20.9998 5 20.9998C3.67 20.9998 3 20.3298 3 18.9998V4.49978C3 3.53978 3.89997 2.81982 4.83997 3.03982L14.84 5.34988C15.52 5.49988 16 6.10984 16 6.80984ZM8.75 11.9998C8.75 11.5898 8.41 11.2498 8 11.2498H7C6.59 11.2498 6.25 11.5898 6.25 11.9998C6.25 12.4098 6.59 12.7498 7 12.7498H8C8.41 12.7498 8.75 12.4098 8.75 11.9998ZM8.75 8.99978C8.75 8.58978 8.41 8.24978 8 8.24978H7C6.59 8.24978 6.25 8.58978 6.25 8.99978C6.25 9.40978 6.59 9.74978 7 9.74978H8C8.41 9.74978 8.75 9.40978 8.75 8.99978ZM12.75 11.9998C12.75 11.5898 12.41 11.2498 12 11.2498H11C10.59 11.2498 10.25 11.5898 10.25 11.9998C10.25 12.4098 10.59 12.7498 11 12.7498H12C12.41 12.7498 12.75 12.4098 12.75 11.9998ZM12.75 8.99978C12.75 8.58978 12.41 8.24978 12 8.24978H11C10.59 8.24978 10.25 8.58978 10.25 8.99978C10.25 9.40978 10.59 9.74978 11 9.74978H12C12.41 9.74978 12.75 9.40978 12.75 8.99978Z" fill="#476C8A"/>
</svg>
