<svg width="16" height="16" viewBox="0 0 16 16" fill="none" xmlns="http://www.w3.org/2000/svg">
<mask id="mask0_218_14432" style="mask-type:luminance" maskUnits="userSpaceOnUse" x="0" y="0" width="16" height="16">
<path d="M16 0H0V16H16V0Z" fill="white"/>
</mask>
<g mask="url(#mask0_218_14432)">
<path d="M16 12.4444C16 11.9535 15.602 11.5555 15.1111 11.5555H0.888906C0.397977 11.5555 0 11.9535 0 12.4444C0 12.9354 0.397977 13.3333 0.888906 13.3333H15.1111C15.602 13.3333 16 12.9354 16 12.4444Z" fill="#EA3C19"/>
<path d="M16 8.00002C16 7.5091 15.602 7.11113 15.1111 7.11113H0.888891C0.39797 7.11113 0 7.5091 0 8.00002C0 8.49094 0.39797 8.88891 0.888891 8.88891H15.1111C15.602 8.88891 16 8.49094 16 8.00002Z" fill="#EA3C19"/>
<path d="M16 3.55557C16 3.06464 15.602 2.66667 15.1111 2.66667H0.888902C0.397975 2.66667 0 3.06464 0 3.55557C0 4.04649 0.397975 4.44447 0.888902 4.44447H15.1111C15.602 4.44447 16 4.04649 16 3.55557Z" fill="#EA3C19"/>
</g>
</svg>
