<svg width="16" height="16" viewBox="0 0 16 16" fill="none" xmlns="http://www.w3.org/2000/svg">
<mask id="mask0_220_500" style="mask-type:luminance" maskUnits="userSpaceOnUse" x="0" y="0" width="16" height="16">
<path d="M16 0H0V16H16V0Z" fill="white"/>
</mask>
<g mask="url(#mask0_220_500)">
<path d="M13.6571 2.34315C13.31 1.99602 12.7471 1.99602 12.4 2.34315L2.34338 12.3998C1.99625 12.7469 1.99625 13.3097 2.34338 13.6569C2.69052 14.004 3.25333 14.004 3.60047 13.6569L13.6571 3.60023C14.0042 3.2531 14.0042 2.69029 13.6571 2.34315Z" fill="#EA3C19"/>
<path d="M13.6573 13.6568C14.0045 13.3097 14.0045 12.7469 13.6573 12.3998L3.60071 2.34314C3.25358 1.99601 2.69076 1.99601 2.34363 2.34314C1.99649 2.69027 1.99649 3.25309 2.34363 3.60022L12.4003 13.6568C12.7474 14.004 13.3102 14.004 13.6573 13.6568Z" fill="#EA3C19"/>
</g>
</svg>
