<svg width="24" height="24" viewBox="0 0 24 24" fill="none" xmlns="http://www.w3.org/2000/svg">
<path d="M21 17.5002V21.0002H16.5V16.0002H19.5C20.5 16.0002 21 16.5002 21 17.5002ZM4.5 14.0002C3.5 14.0002 3 14.5002 3 15.5002V21.0002H7.5V14.0002H4.5ZM15 12.5002C15 11.5002 14.5 11.0002 13.5 11.0002H10.5C9.5 11.0002 9 11.5002 9 12.5002V21.0002H15V12.5002ZM11.626 2.76018L10.871 4.28313C10.814 4.39813 10.704 4.47715 10.578 4.49615L8.83501 4.74822C8.51501 4.79422 8.388 5.18618 8.619 5.41118L9.879 6.63421C9.971 6.72321 10.013 6.85218 9.991 6.97918L9.703 8.65118C9.644 8.99118 10.002 9.25014 10.308 9.09014L11.819 8.29912C11.932 8.24012 12.068 8.24012 12.181 8.29912L13.693 9.09112C13.999 9.25112 14.356 8.99215 14.297 8.65215L14.009 6.9782C13.987 6.8522 14.029 6.72323 14.121 6.63323L15.381 5.41021C15.613 5.18521 15.485 4.79312 15.165 4.74712L13.422 4.49517C13.295 4.47717 13.185 4.39716 13.129 4.28216L12.374 2.75921C12.221 2.45121 11.779 2.45118 11.626 2.76018Z" fill="#476C8A"/>
</svg>
