<svg width="24" height="24" viewBox="0 0 24 24" fill="none" xmlns="http://www.w3.org/2000/svg">
<path fill-rule="evenodd" clip-rule="evenodd" d="M20.1219 9.88023L19.681 9.43922C19.4 9.15822 19.2419 8.77622 19.2419 8.37822V7.75722C19.2419 6.10122 17.9 4.75923 16.244 4.75923H15.623C15.225 4.75923 14.844 4.60124 14.562 4.32024L14.1209 3.87923C12.9499 2.70823 11.0519 2.70823 9.88094 3.87923L9.4399 4.32024C9.1589 4.60124 8.77698 4.75923 8.37898 4.75923H7.75801C6.10201 4.75923 4.75996 6.10122 4.75996 7.75722V8.37822C4.75996 8.77622 4.602 9.15722 4.321 9.43922L3.87996 9.88023C2.70896 11.0512 2.70896 12.9492 3.87996 14.1202L4.321 14.5612C4.602 14.8422 4.75996 15.2242 4.75996 15.6222V16.2432C4.75996 17.8992 6.10201 19.2412 7.75801 19.2412H8.37898C8.77698 19.2412 9.1579 19.3992 9.4399 19.6802L9.88094 20.1212C11.0519 21.2922 12.9499 21.2922 14.1209 20.1212L14.562 19.6802C14.843 19.3992 15.225 19.2412 15.623 19.2412H16.244C17.9 19.2412 19.2419 17.8992 19.2419 16.2432V15.6222C19.2419 15.2242 19.4 14.8432 19.681 14.5612L20.1219 14.1202C21.2929 12.9492 21.2929 11.0512 20.1219 9.88023ZM9.50996 8.50023H9.51997C10.073 8.50023 10.52 8.94823 10.52 9.50023C10.52 10.0522 10.073 10.5002 9.51997 10.5002C8.96797 10.5002 8.51497 10.0522 8.51497 9.50023C8.51497 8.94823 8.95796 8.50023 9.50996 8.50023ZM10.03 15.0302C9.88398 15.1762 9.69195 15.2502 9.49995 15.2502C9.30795 15.2502 9.11592 15.1772 8.96992 15.0302C8.67692 14.7372 8.67692 14.2622 8.96992 13.9692L13.9699 8.96922C14.2629 8.67622 14.738 8.67622 15.031 8.96922C15.324 9.26222 15.324 9.73723 15.031 10.0302L10.03 15.0302ZM14.52 15.5002C13.968 15.5002 13.515 15.0522 13.515 14.5002C13.515 13.9482 13.958 13.5002 14.51 13.5002H14.52C15.073 13.5002 15.52 13.9482 15.52 14.5002C15.52 15.0522 15.072 15.5002 14.52 15.5002Z" fill="white"/>
</svg>
